<svg width="52" height="52" viewBox="0 0 52 52" fill="none" xmlns="http://www.w3.org/2000/svg">
<path d="M0 12.1875C0 9.048 2.548 6.5 5.6875 6.5H46.3125C49.452 6.5 52 9.048 52 12.1875V39.8125C52 41.3209 51.4008 42.7676 50.3342 43.8342C49.2676 44.9008 47.8209 45.5 46.3125 45.5H5.6875C4.17908 45.5 2.73244 44.9008 1.66583 43.8342C0.599217 42.7676 0 41.3209 0 39.8125L0 12.1875ZM5.6875 11.375C5.47201 11.375 5.26535 11.4606 5.11298 11.613C4.9606 11.7653 4.875 11.972 4.875 12.1875V39.8125C4.875 40.261 5.239 40.625 5.6875 40.625H46.3125C46.528 40.625 46.7347 40.5394 46.887 40.387C47.0394 40.2347 47.125 40.028 47.125 39.8125V12.1875C47.125 11.972 47.0394 11.7653 46.887 11.613C46.7347 11.4606 46.528 11.375 46.3125 11.375H5.6875Z" fill="white"/>
<path d="M19.5 34.3167V17.6865C19.4995 17.5424 19.5374 17.4007 19.6097 17.276C19.682 17.1513 19.7862 17.0481 19.9116 16.977C20.037 16.9059 20.179 16.8694 20.3231 16.8713C20.4673 16.8732 20.6083 16.9134 20.7318 16.9877L34.5897 25.3045C34.7095 25.3768 34.8086 25.4788 34.8773 25.6007C34.9461 25.7225 34.9822 25.8601 34.9822 26C34.9822 26.1399 34.9461 26.2774 34.8773 26.3993C34.8086 26.5211 34.7095 26.6232 34.5897 26.6955L20.7318 35.0122C20.6085 35.0865 20.4678 35.1267 20.3239 35.1287C20.1801 35.1307 20.0383 35.0945 19.913 35.0238C19.7877 34.953 19.6835 34.8503 19.6109 34.7261C19.5384 34.6019 19.5001 34.4606 19.5 34.3167Z" fill="white"/>
</svg>
